<svg width="44" height="43" viewBox="0 0 44 43" fill="none" xmlns="http://www.w3.org/2000/svg">
<path d="M13.5625 0.520874C6.42887 0.520874 0.625 6.21727 0.625 13.2188V29.7813C0.625 36.7828 6.42887 42.4792 13.5625 42.4792H30.4375C37.5711 42.4792 43.375 36.7828 43.375 29.7813V13.2188C43.375 6.21727 37.5711 0.520874 30.4375 0.520874H13.5625ZM33.25 8.25004C34.4931 8.25004 35.5 9.23827 35.5 10.4584C35.5 11.6774 34.4931 12.6667 33.25 12.6667C32.0069 12.6667 31 11.6774 31 10.4584C31 9.23827 32.0069 8.25004 33.25 8.25004ZM22 10.4584C28.2033 10.4584 33.25 15.4117 33.25 21.5C33.25 27.5884 28.2033 32.5417 22 32.5417C15.7968 32.5417 10.75 27.5884 10.75 21.5C10.75 15.4117 15.7968 10.4584 22 10.4584ZM22 13.7709C20.9658 13.7709 19.9418 13.9708 18.9864 14.3592C18.0309 14.7476 17.1628 15.317 16.4315 16.0347C15.7003 16.7524 15.1202 17.6045 14.7244 18.5422C14.3287 19.48 14.125 20.485 14.125 21.5C14.125 22.5151 14.3287 23.5201 14.7244 24.4579C15.1202 25.3956 15.7003 26.2477 16.4315 26.9654C17.1628 27.6831 18.0309 28.2524 18.9864 28.6409C19.9418 29.0293 20.9658 29.2292 22 29.2292C23.0342 29.2292 24.0582 29.0293 25.0136 28.6409C25.9691 28.2524 26.8372 27.6831 27.5685 26.9654C28.2997 26.2477 28.8798 25.3956 29.2756 24.4579C29.6713 23.5201 29.875 22.5151 29.875 21.5C29.875 20.485 29.6713 19.48 29.2756 18.5422C28.8798 17.6045 28.2997 16.7524 27.5685 16.0347C26.8372 15.317 25.9691 14.7476 25.0136 14.3592C24.0582 13.9708 23.0342 13.7709 22 13.7709Z" fill="#DF8480"/>
</svg>
