<svg width="44" height="36" viewBox="0 0 44 36" fill="none" xmlns="http://www.w3.org/2000/svg">
<path d="M44 4.70561C42.3529 5.41947 40.6986 5.95837 38.8652 6.14034C40.6986 5.06254 42.1667 3.27087 42.8971 1.29724C41.0638 2.37504 39.2305 3.08891 37.2181 3.45284C35.3848 1.66117 33 0.583374 30.4362 0.583374C25.4805 0.583374 21.4486 4.52364 21.4486 9.35974C21.4486 10.0806 21.4486 10.7945 21.6348 11.3334C14.1152 10.9764 7.51953 7.56807 3.11523 2.19308C2.19857 3.45284 1.83333 5.06254 1.83333 6.67224C1.83333 9.72367 3.48047 12.4112 5.86523 14.0209C4.39714 13.8389 2.9362 13.482 1.83333 12.9431C1.83333 12.9431 1.83333 12.9431 1.83333 13.125C1.83333 17.4222 4.94857 21.0056 8.98047 21.7264C8.25 21.9014 7.51953 22.0834 6.60287 22.0834C6.05143 22.0834 5.5 22.0834 4.94857 21.9014C6.05143 25.4847 9.35287 27.9973 13.3848 27.9973C10.2695 30.3278 6.41667 31.7556 2.19857 31.7556C1.4681 31.7556 0.73047 31.7556 0 31.5806C4.0319 34.0861 8.80143 35.5209 13.75 35.5209C30.4362 35.5209 39.4167 22.0834 39.4167 10.4375C39.4167 10.0806 39.4167 9.72367 39.4167 9.35974C41.25 8.10697 42.7181 6.49727 44 4.70561Z" fill="#DF8480"/>
</svg>
